<?xml version="1.0" encoding="UTF-8" standalone="no"?>
<!-- Created with Inkscape (http://www.inkscape.org/) -->

<svg
   width="210mm"
   height="297mm"
   viewBox="0 0 210 297"
   version="1.1"
   id="svg5"
   inkscape:version="1.2.1 (9c6d41e410, 2022-07-14)"
   sodipodi:docname="02d.svg"
   xmlns:inkscape="http://www.inkscape.org/namespaces/inkscape"
   xmlns:sodipodi="http://sodipodi.sourceforge.net/DTD/sodipodi-0.dtd"
   xmlns="http://www.w3.org/2000/svg"
   xmlns:svg="http://www.w3.org/2000/svg">
  <sodipodi:namedview
     id="namedview7"
     pagecolor="#ffffff"
     bordercolor="#000000"
     borderopacity="0.25"
     inkscape:showpageshadow="2"
     inkscape:pageopacity="0.0"
     inkscape:pagecheckerboard="0"
     inkscape:deskcolor="#d1d1d1"
     inkscape:document-units="mm"
     showgrid="false"
     inkscape:zoom="0.71624579"
     inkscape:cx="336.47667"
     inkscape:cy="455.8491"
     inkscape:window-width="1188"
     inkscape:window-height="981"
     inkscape:window-x="722"
     inkscape:window-y="0"
     inkscape:window-maximized="0"
     inkscape:current-layer="layer1" />
  <defs
     id="defs2">
    <inkscape:path-effect
       effect="powerstroke"
       id="path-effect35352"
       is_visible="true"
       lpeversion="1"
       offset_points="6,6.7041532"
       not_jump="false"
       sort_points="true"
       interpolator_type="CubicBezierJohan"
       interpolator_beta="0.2"
       start_linecap_type="zerowidth"
       linejoin_type="extrp_arc"
       miter_limit="4"
       scale_width="1"
       end_linecap_type="zerowidth" />
    <inkscape:path-effect
       effect="powerstroke"
       id="path-effect27588"
       is_visible="true"
       lpeversion="1"
       offset_points="12,6.7041532"
       not_jump="false"
       sort_points="true"
       interpolator_type="CubicBezierJohan"
       interpolator_beta="0.2"
       start_linecap_type="zerowidth"
       linejoin_type="extrp_arc"
       miter_limit="4"
       scale_width="1"
       end_linecap_type="zerowidth" />
    <inkscape:path-effect
       effect="spiro"
       id="path-effect27586"
       is_visible="true"
       lpeversion="1" />
    <inkscape:path-effect
       effect="powerstroke"
       id="path-effect27458"
       is_visible="true"
       lpeversion="1"
       offset_points="0.5,5.5410446"
       not_jump="true"
       sort_points="true"
       interpolator_type="CentripetalCatmullRom"
       interpolator_beta="0.75"
       start_linecap_type="round"
       linejoin_type="spiro"
       miter_limit="4"
       scale_width="1"
       end_linecap_type="round" />
    <inkscape:path-effect
       effect="simplify"
       id="path-effect27456"
       is_visible="true"
       lpeversion="1"
       steps="1"
       threshold="0.0047745358"
       smooth_angles="0"
       helper_size="0"
       simplify_individual_paths="false"
       simplify_just_coalesce="false"
       step="1" />
    <inkscape:path-effect
       effect="powerstroke"
       id="path-effect27451"
       is_visible="true"
       lpeversion="1"
       offset_points="0.5,5.5410446"
       not_jump="true"
       sort_points="true"
       interpolator_type="CentripetalCatmullRom"
       interpolator_beta="0.75"
       start_linecap_type="round"
       linejoin_type="spiro"
       miter_limit="4"
       scale_width="1"
       end_linecap_type="round" />
    <inkscape:path-effect
       effect="simplify"
       id="path-effect27449"
       is_visible="true"
       lpeversion="1"
       steps="1"
       threshold="0.0047745358"
       smooth_angles="0"
       helper_size="0"
       simplify_individual_paths="false"
       simplify_just_coalesce="false"
       step="1" />
    <inkscape:path-effect
       effect="powerstroke"
       id="path-effect27444"
       is_visible="true"
       lpeversion="1"
       offset_points="1,5.5410446"
       not_jump="true"
       sort_points="true"
       interpolator_type="CentripetalCatmullRom"
       interpolator_beta="0.75"
       start_linecap_type="round"
       linejoin_type="spiro"
       miter_limit="4"
       scale_width="1"
       end_linecap_type="round" />
    <inkscape:path-effect
       effect="simplify"
       id="path-effect27442"
       is_visible="true"
       lpeversion="1"
       steps="1"
       threshold="0.0047745358"
       smooth_angles="0"
       helper_size="0"
       simplify_individual_paths="false"
       simplify_just_coalesce="false"
       step="1" />
    <inkscape:path-effect
       effect="powerstroke"
       id="path-effect27437"
       is_visible="true"
       lpeversion="1"
       offset_points="1.5051197,5.5410446"
       not_jump="true"
       sort_points="true"
       interpolator_type="CentripetalCatmullRom"
       interpolator_beta="0.75"
       start_linecap_type="round"
       linejoin_type="spiro"
       miter_limit="4"
       scale_width="1"
       end_linecap_type="round" />
    <inkscape:path-effect
       effect="simplify"
       id="path-effect27435"
       is_visible="true"
       lpeversion="1"
       steps="1"
       threshold="0.0047745358"
       smooth_angles="0"
       helper_size="0"
       simplify_individual_paths="false"
       simplify_just_coalesce="false"
       step="1" />
    <inkscape:path-effect
       effect="powerstroke"
       id="path-effect27430"
       is_visible="true"
       lpeversion="1"
       offset_points="0.5,5.5410446"
       not_jump="true"
       sort_points="true"
       interpolator_type="CentripetalCatmullRom"
       interpolator_beta="0.75"
       start_linecap_type="round"
       linejoin_type="spiro"
       miter_limit="4"
       scale_width="1"
       end_linecap_type="round" />
    <inkscape:path-effect
       effect="simplify"
       id="path-effect27428"
       is_visible="true"
       lpeversion="1"
       steps="1"
       threshold="0.0047745358"
       smooth_angles="0"
       helper_size="0"
       simplify_individual_paths="false"
       simplify_just_coalesce="false"
       step="1" />
    <inkscape:path-effect
       effect="powerstroke"
       id="path-effect27423"
       is_visible="true"
       lpeversion="1"
       offset_points="3.0389877,5.5410446"
       not_jump="true"
       sort_points="true"
       interpolator_type="CentripetalCatmullRom"
       interpolator_beta="0.75"
       start_linecap_type="round"
       linejoin_type="spiro"
       miter_limit="4"
       scale_width="1"
       end_linecap_type="round" />
    <inkscape:path-effect
       effect="simplify"
       id="path-effect27421"
       is_visible="true"
       lpeversion="1"
       steps="1"
       threshold="0.0047745358"
       smooth_angles="0"
       helper_size="0"
       simplify_individual_paths="false"
       simplify_just_coalesce="false"
       step="1" />
    <inkscape:path-effect
       effect="powerstroke"
       id="path-effect27416"
       is_visible="true"
       lpeversion="1"
       offset_points="1.5,0"
       not_jump="true"
       sort_points="true"
       interpolator_type="CentripetalCatmullRom"
       interpolator_beta="0.75"
       start_linecap_type="round"
       linejoin_type="spiro"
       miter_limit="4"
       scale_width="1"
       end_linecap_type="round" />
    <inkscape:path-effect
       effect="simplify"
       id="path-effect27414"
       is_visible="true"
       lpeversion="1"
       steps="1"
       threshold="0.0047745358"
       smooth_angles="0"
       helper_size="0"
       simplify_individual_paths="false"
       simplify_just_coalesce="false"
       step="1" />
    <inkscape:path-effect
       effect="powerstroke"
       id="path-effect27409"
       is_visible="true"
       lpeversion="1"
       offset_points="2,5.5410446"
       not_jump="true"
       sort_points="true"
       interpolator_type="CentripetalCatmullRom"
       interpolator_beta="0.75"
       start_linecap_type="round"
       linejoin_type="spiro"
       miter_limit="4"
       scale_width="1"
       end_linecap_type="round" />
    <inkscape:path-effect
       effect="simplify"
       id="path-effect27407"
       is_visible="true"
       lpeversion="1"
       steps="1"
       threshold="0.0047745358"
       smooth_angles="0"
       helper_size="0"
       simplify_individual_paths="false"
       simplify_just_coalesce="false"
       step="1" />
    <inkscape:path-effect
       effect="powerstroke"
       id="path-effect27402"
       is_visible="true"
       lpeversion="1"
       offset_points="0.5,5.5410446"
       not_jump="true"
       sort_points="true"
       interpolator_type="CentripetalCatmullRom"
       interpolator_beta="0.75"
       start_linecap_type="round"
       linejoin_type="spiro"
       miter_limit="4"
       scale_width="1"
       end_linecap_type="round" />
    <inkscape:path-effect
       effect="simplify"
       id="path-effect27400"
       is_visible="true"
       lpeversion="1"
       steps="1"
       threshold="0.0047745358"
       smooth_angles="0"
       helper_size="0"
       simplify_individual_paths="false"
       simplify_just_coalesce="false"
       step="1" />
    <inkscape:path-effect
       effect="powerstroke"
       id="path-effect27395"
       is_visible="true"
       lpeversion="1"
       offset_points="1.2,5.5410446"
       not_jump="true"
       sort_points="true"
       interpolator_type="CentripetalCatmullRom"
       interpolator_beta="0.75"
       start_linecap_type="round"
       linejoin_type="spiro"
       miter_limit="4"
       scale_width="1"
       end_linecap_type="round" />
    <inkscape:path-effect
       effect="simplify"
       id="path-effect27393"
       is_visible="true"
       lpeversion="1"
       steps="1"
       threshold="0.0047745358"
       smooth_angles="0"
       helper_size="0"
       simplify_individual_paths="false"
       simplify_just_coalesce="false"
       step="1" />
    <inkscape:path-effect
       effect="powerstroke"
       id="path-effect27388"
       is_visible="true"
       lpeversion="1"
       offset_points="0.75,5.5410446"
       not_jump="true"
       sort_points="true"
       interpolator_type="CentripetalCatmullRom"
       interpolator_beta="0.75"
       start_linecap_type="round"
       linejoin_type="spiro"
       miter_limit="4"
       scale_width="1"
       end_linecap_type="round" />
    <inkscape:path-effect
       effect="simplify"
       id="path-effect27386"
       is_visible="true"
       lpeversion="1"
       steps="1"
       threshold="0.0047745358"
       smooth_angles="0"
       helper_size="0"
       simplify_individual_paths="false"
       simplify_just_coalesce="false"
       step="1" />
    <inkscape:path-effect
       effect="powerstroke"
       id="path-effect27381"
       is_visible="true"
       lpeversion="1"
       offset_points="0.5,5.5410446"
       not_jump="true"
       sort_points="true"
       interpolator_type="CentripetalCatmullRom"
       interpolator_beta="0.75"
       start_linecap_type="round"
       linejoin_type="spiro"
       miter_limit="4"
       scale_width="1"
       end_linecap_type="round" />
    <inkscape:path-effect
       effect="simplify"
       id="path-effect27379"
       is_visible="true"
       lpeversion="1"
       steps="1"
       threshold="0.0047745358"
       smooth_angles="0"
       helper_size="0"
       simplify_individual_paths="false"
       simplify_just_coalesce="false"
       step="1" />
    <inkscape:path-effect
       effect="powerstroke"
       id="path-effect27374"
       is_visible="true"
       lpeversion="1"
       offset_points="1,5.5410446"
       not_jump="true"
       sort_points="true"
       interpolator_type="CentripetalCatmullRom"
       interpolator_beta="0.75"
       start_linecap_type="round"
       linejoin_type="spiro"
       miter_limit="4"
       scale_width="1"
       end_linecap_type="round" />
    <inkscape:path-effect
       effect="simplify"
       id="path-effect27372"
       is_visible="true"
       lpeversion="1"
       steps="1"
       threshold="0.0047745358"
       smooth_angles="0"
       helper_size="0"
       simplify_individual_paths="false"
       simplify_just_coalesce="false"
       step="1" />
    <inkscape:path-effect
       effect="powerstroke"
       id="path-effect27367"
       is_visible="true"
       lpeversion="1"
       offset_points="0.5,5.5410446"
       not_jump="true"
       sort_points="true"
       interpolator_type="CentripetalCatmullRom"
       interpolator_beta="0.75"
       start_linecap_type="round"
       linejoin_type="spiro"
       miter_limit="4"
       scale_width="1"
       end_linecap_type="round" />
    <inkscape:path-effect
       effect="simplify"
       id="path-effect27365"
       is_visible="true"
       lpeversion="1"
       steps="1"
       threshold="0.0047745358"
       smooth_angles="0"
       helper_size="0"
       simplify_individual_paths="false"
       simplify_just_coalesce="false"
       step="1" />
    <inkscape:path-effect
       effect="powerstroke"
       id="path-effect27360"
       is_visible="true"
       lpeversion="1"
       offset_points="1.5194939,5.5410446"
       not_jump="true"
       sort_points="true"
       interpolator_type="CentripetalCatmullRom"
       interpolator_beta="0.75"
       start_linecap_type="round"
       linejoin_type="spiro"
       miter_limit="4"
       scale_width="1"
       end_linecap_type="round" />
    <inkscape:path-effect
       effect="simplify"
       id="path-effect27358"
       is_visible="true"
       lpeversion="1"
       steps="1"
       threshold="0.0047745358"
       smooth_angles="0"
       helper_size="0"
       simplify_individual_paths="false"
       simplify_just_coalesce="false"
       step="1" />
    <inkscape:path-effect
       effect="powerstroke"
       id="path-effect27353"
       is_visible="true"
       lpeversion="1"
       offset_points="1,5.5410446"
       not_jump="true"
       sort_points="true"
       interpolator_type="CentripetalCatmullRom"
       interpolator_beta="0.75"
       start_linecap_type="round"
       linejoin_type="spiro"
       miter_limit="4"
       scale_width="1"
       end_linecap_type="round" />
    <inkscape:path-effect
       effect="simplify"
       id="path-effect27351"
       is_visible="true"
       lpeversion="1"
       steps="1"
       threshold="0.0047745358"
       smooth_angles="0"
       helper_size="0"
       simplify_individual_paths="false"
       simplify_just_coalesce="false"
       step="1" />
    <inkscape:path-effect
       effect="powerstroke"
       id="path-effect27346"
       is_visible="true"
       lpeversion="1"
       offset_points="1.5,5.5410446"
       not_jump="true"
       sort_points="true"
       interpolator_type="CentripetalCatmullRom"
       interpolator_beta="0.75"
       start_linecap_type="round"
       linejoin_type="spiro"
       miter_limit="4"
       scale_width="1"
       end_linecap_type="round" />
    <inkscape:path-effect
       effect="simplify"
       id="path-effect27344"
       is_visible="true"
       lpeversion="1"
       steps="1"
       threshold="0.0047745358"
       smooth_angles="0"
       helper_size="0"
       simplify_individual_paths="false"
       simplify_just_coalesce="false"
       step="1" />
    <inkscape:path-effect
       effect="powerstroke"
       id="path-effect27339"
       is_visible="true"
       lpeversion="1"
       offset_points="1.2164541,5.5410446"
       not_jump="true"
       sort_points="true"
       interpolator_type="CentripetalCatmullRom"
       interpolator_beta="0.75"
       start_linecap_type="round"
       linejoin_type="spiro"
       miter_limit="4"
       scale_width="1"
       end_linecap_type="round" />
    <inkscape:path-effect
       effect="simplify"
       id="path-effect27337"
       is_visible="true"
       lpeversion="1"
       steps="1"
       threshold="0.0047745358"
       smooth_angles="0"
       helper_size="0"
       simplify_individual_paths="false"
       simplify_just_coalesce="false"
       step="1" />
    <inkscape:path-effect
       effect="powerstroke"
       id="path-effect27332"
       is_visible="true"
       lpeversion="1"
       offset_points="2,5.5410446"
       not_jump="true"
       sort_points="true"
       interpolator_type="CentripetalCatmullRom"
       interpolator_beta="0.75"
       start_linecap_type="round"
       linejoin_type="spiro"
       miter_limit="4"
       scale_width="1"
       end_linecap_type="round" />
    <inkscape:path-effect
       effect="simplify"
       id="path-effect27330"
       is_visible="true"
       lpeversion="1"
       steps="1"
       threshold="0.0047745358"
       smooth_angles="0"
       helper_size="0"
       simplify_individual_paths="false"
       simplify_just_coalesce="false"
       step="1" />
    <inkscape:path-effect
       effect="powerstroke"
       id="path-effect27325"
       is_visible="true"
       lpeversion="1"
       offset_points="1.1970168,5.5410446"
       not_jump="true"
       sort_points="true"
       interpolator_type="CentripetalCatmullRom"
       interpolator_beta="0.75"
       start_linecap_type="round"
       linejoin_type="spiro"
       miter_limit="4"
       scale_width="1"
       end_linecap_type="round" />
    <inkscape:path-effect
       effect="simplify"
       id="path-effect27323"
       is_visible="true"
       lpeversion="1"
       steps="1"
       threshold="0.0047745358"
       smooth_angles="0"
       helper_size="0"
       simplify_individual_paths="false"
       simplify_just_coalesce="false"
       step="1" />
    <inkscape:path-effect
       effect="powerstroke"
       id="path-effect20755"
       is_visible="true"
       lpeversion="1"
       offset_points="2.6163447,6.7041532"
       not_jump="false"
       sort_points="true"
       interpolator_type="CubicBezierJohan"
       interpolator_beta="0.2"
       start_linecap_type="zerowidth"
       linejoin_type="extrp_arc"
       miter_limit="4"
       scale_width="1"
       end_linecap_type="zerowidth" />
    <inkscape:path-effect
       effect="spiro"
       id="path-effect20753"
       is_visible="true"
       lpeversion="1" />
    <inkscape:path-effect
       effect="powerstroke"
       id="path-effect20745"
       is_visible="true"
       lpeversion="1"
       offset_points="26,6.7041532"
       not_jump="false"
       sort_points="true"
       interpolator_type="CubicBezierJohan"
       interpolator_beta="0.2"
       start_linecap_type="zerowidth"
       linejoin_type="extrp_arc"
       miter_limit="4"
       scale_width="1"
       end_linecap_type="zerowidth" />
    <inkscape:path-effect
       effect="spiro"
       id="path-effect20743"
       is_visible="true"
       lpeversion="1" />
    <inkscape:path-effect
       effect="powerstroke"
       id="path-effect20735"
       is_visible="true"
       lpeversion="1"
       offset_points="11,6.7041532"
       not_jump="false"
       sort_points="true"
       interpolator_type="CubicBezierJohan"
       interpolator_beta="0.2"
       start_linecap_type="zerowidth"
       linejoin_type="extrp_arc"
       miter_limit="4"
       scale_width="1"
       end_linecap_type="zerowidth" />
    <inkscape:path-effect
       effect="spiro"
       id="path-effect20733"
       is_visible="true"
       lpeversion="1" />
    <inkscape:path-effect
       effect="powerstroke"
       id="path-effect20725"
       is_visible="true"
       lpeversion="1"
       offset_points="3,6.7041532"
       not_jump="false"
       sort_points="true"
       interpolator_type="CubicBezierJohan"
       interpolator_beta="0.2"
       start_linecap_type="zerowidth"
       linejoin_type="extrp_arc"
       miter_limit="4"
       scale_width="1"
       end_linecap_type="zerowidth" />
    <inkscape:path-effect
       effect="powerstroke"
       id="path-effect16280"
       is_visible="true"
       lpeversion="1"
       offset_points="1.124041,5.5410446"
       not_jump="true"
       sort_points="true"
       interpolator_type="CentripetalCatmullRom"
       interpolator_beta="0.75"
       start_linecap_type="round"
       linejoin_type="spiro"
       miter_limit="4"
       scale_width="1"
       end_linecap_type="round" />
    <inkscape:path-effect
       effect="simplify"
       id="path-effect16278"
       is_visible="true"
       lpeversion="1"
       steps="1"
       threshold="0.0047745358"
       smooth_angles="0"
       helper_size="0"
       simplify_individual_paths="false"
       simplify_just_coalesce="false"
       step="1" />
    <inkscape:path-effect
       effect="powerstroke"
       id="path-effect16273"
       is_visible="true"
       lpeversion="1"
       offset_points="1.4946356,5.5410446"
       not_jump="true"
       sort_points="true"
       interpolator_type="CentripetalCatmullRom"
       interpolator_beta="0.75"
       start_linecap_type="round"
       linejoin_type="spiro"
       miter_limit="4"
       scale_width="1"
       end_linecap_type="round" />
    <inkscape:path-effect
       effect="simplify"
       id="path-effect16271"
       is_visible="true"
       lpeversion="1"
       steps="1"
       threshold="0.0047745358"
       smooth_angles="0"
       helper_size="0"
       simplify_individual_paths="false"
       simplify_just_coalesce="false"
       step="1" />
    <inkscape:path-effect
       effect="powerstroke"
       id="path-effect13992"
       is_visible="true"
       lpeversion="1"
       offset_points="0.013654582,-6.7041532"
       not_jump="false"
       sort_points="true"
       interpolator_type="CubicBezierJohan"
       interpolator_beta="0.2"
       start_linecap_type="zerowidth"
       linejoin_type="extrp_arc"
       miter_limit="4"
       scale_width="1"
       end_linecap_type="zerowidth" />
    <inkscape:path-effect
       effect="spiro"
       id="path-effect13990"
       is_visible="true"
       lpeversion="1" />
    <inkscape:path-effect
       effect="powerstroke"
       id="path-effect13874"
       is_visible="true"
       lpeversion="1"
       offset_points="8,0.6738289"
       not_jump="false"
       sort_points="true"
       interpolator_type="CubicBezierJohan"
       interpolator_beta="0.2"
       start_linecap_type="zerowidth"
       linejoin_type="extrp_arc"
       miter_limit="4"
       scale_width="1"
       end_linecap_type="zerowidth" />
    <inkscape:path-effect
       effect="spiro"
       id="path-effect13872"
       is_visible="true"
       lpeversion="1" />
    <inkscape:path-effect
       effect="fill_between_many"
       method="bsplinespiro"
       linkedpaths="#path13870,0,1"
       id="path-effect13876" />
    <inkscape:path-effect
       effect="fill_between_many"
       method="bsplinespiro"
       linkedpaths="#path13988,0,1"
       id="path-effect13994" />
    <inkscape:path-effect
       effect="fill_between_many"
       method="bsplinespiro"
       linkedpaths="#path20723,0,1"
       id="path-effect20727" />
    <inkscape:path-effect
       effect="fill_between_many"
       method="bsplinespiro"
       linkedpaths="#path20731,0,1"
       id="path-effect20737" />
    <inkscape:path-effect
       effect="fill_between_many"
       method="bsplinespiro"
       linkedpaths="#path20741,0,1"
       id="path-effect20747" />
    <inkscape:path-effect
       effect="fill_between_many"
       method="bsplinespiro"
       linkedpaths="#path20751,0,1"
       id="path-effect20757" />
    <inkscape:path-effect
       effect="simplify"
       id="path-effect27379-1"
       is_visible="true"
       lpeversion="1"
       steps="1"
       threshold="0.0047745358"
       smooth_angles="0"
       helper_size="0"
       simplify_individual_paths="false"
       simplify_just_coalesce="false"
       step="1" />
    <inkscape:path-effect
       effect="powerstroke"
       id="path-effect27381-8"
       is_visible="true"
       lpeversion="1"
       offset_points="0.5,5.5410446"
       not_jump="true"
       sort_points="true"
       interpolator_type="CentripetalCatmullRom"
       interpolator_beta="0.75"
       start_linecap_type="round"
       linejoin_type="spiro"
       miter_limit="4"
       scale_width="1"
       end_linecap_type="round" />
    <inkscape:path-effect
       effect="simplify"
       id="path-effect27379-2"
       is_visible="true"
       lpeversion="1"
       steps="1"
       threshold="0.0047745358"
       smooth_angles="0"
       helper_size="0"
       simplify_individual_paths="false"
       simplify_just_coalesce="false"
       step="1" />
    <inkscape:path-effect
       effect="powerstroke"
       id="path-effect27381-4"
       is_visible="true"
       lpeversion="1"
       offset_points="0.5,5.5410446"
       not_jump="true"
       sort_points="true"
       interpolator_type="CentripetalCatmullRom"
       interpolator_beta="0.75"
       start_linecap_type="round"
       linejoin_type="spiro"
       miter_limit="4"
       scale_width="1"
       end_linecap_type="round" />
    <inkscape:path-effect
       effect="simplify"
       id="path-effect27379-7"
       is_visible="true"
       lpeversion="1"
       steps="1"
       threshold="0.0047745358"
       smooth_angles="0"
       helper_size="0"
       simplify_individual_paths="false"
       simplify_just_coalesce="false"
       step="1" />
    <inkscape:path-effect
       effect="powerstroke"
       id="path-effect27381-7"
       is_visible="true"
       lpeversion="1"
       offset_points="0.5,5.5410446"
       not_jump="true"
       sort_points="true"
       interpolator_type="CentripetalCatmullRom"
       interpolator_beta="0.75"
       start_linecap_type="round"
       linejoin_type="spiro"
       miter_limit="4"
       scale_width="1"
       end_linecap_type="round" />
    <inkscape:path-effect
       effect="fill_between_many"
       method="bsplinespiro"
       linkedpaths="#path27584,0,1"
       id="path-effect27590" />
    <inkscape:path-effect
       effect="fill_between_many"
       method="bsplinespiro"
       linkedpaths="#path27584-7,0,1"
       id="path-effect27590-2"
       is_visible="true"
       lpeversion="0"
       join="true"
       close="true"
       autoreverse="true" />
    <inkscape:path-effect
       effect="spiro"
       id="path-effect27586-9"
       is_visible="true"
       lpeversion="1" />
    <inkscape:path-effect
       effect="powerstroke"
       id="path-effect27588-3"
       is_visible="true"
       lpeversion="1"
       offset_points="12,6.7041532"
       not_jump="false"
       sort_points="true"
       interpolator_type="CubicBezierJohan"
       interpolator_beta="0.2"
       start_linecap_type="zerowidth"
       linejoin_type="extrp_arc"
       miter_limit="4"
       scale_width="1"
       end_linecap_type="zerowidth" />
    <inkscape:path-effect
       effect="fill_between_many"
       method="bsplinespiro"
       linkedpaths="#path27584-4,0,1"
       id="path-effect27590-22"
       is_visible="true"
       lpeversion="0"
       join="true"
       close="true"
       autoreverse="true" />
    <inkscape:path-effect
       effect="spiro"
       id="path-effect27586-6"
       is_visible="true"
       lpeversion="1" />
    <inkscape:path-effect
       effect="powerstroke"
       id="path-effect27588-6"
       is_visible="true"
       lpeversion="1"
       offset_points="12,6.7041532"
       not_jump="false"
       sort_points="true"
       interpolator_type="CubicBezierJohan"
       interpolator_beta="0.2"
       start_linecap_type="zerowidth"
       linejoin_type="extrp_arc"
       miter_limit="4"
       scale_width="1"
       end_linecap_type="zerowidth" />
    <inkscape:path-effect
       effect="fill_between_many"
       method="bsplinespiro"
       linkedpaths="#path27584-5,0,1"
       id="path-effect27590-7"
       is_visible="true"
       lpeversion="0"
       join="true"
       close="true"
       autoreverse="true" />
    <inkscape:path-effect
       effect="spiro"
       id="path-effect27586-5"
       is_visible="true"
       lpeversion="1" />
    <inkscape:path-effect
       effect="powerstroke"
       id="path-effect27588-5"
       is_visible="true"
       lpeversion="1"
       offset_points="12,6.7041532"
       not_jump="false"
       sort_points="true"
       interpolator_type="CubicBezierJohan"
       interpolator_beta="0.2"
       start_linecap_type="zerowidth"
       linejoin_type="extrp_arc"
       miter_limit="4"
       scale_width="1"
       end_linecap_type="zerowidth" />
    <inkscape:path-effect
       effect="fill_between_many"
       method="bsplinespiro"
       linkedpaths="#path27584-1,0,1"
       id="path-effect27590-8"
       is_visible="true"
       lpeversion="0"
       join="true"
       close="true"
       autoreverse="true" />
    <inkscape:path-effect
       effect="spiro"
       id="path-effect27586-96"
       is_visible="true"
       lpeversion="1" />
    <inkscape:path-effect
       effect="powerstroke"
       id="path-effect27588-53"
       is_visible="true"
       lpeversion="1"
       offset_points="12,6.7041532"
       not_jump="false"
       sort_points="true"
       interpolator_type="CubicBezierJohan"
       interpolator_beta="0.2"
       start_linecap_type="zerowidth"
       linejoin_type="extrp_arc"
       miter_limit="4"
       scale_width="1"
       end_linecap_type="zerowidth" />
    <inkscape:path-effect
       effect="fill_between_many"
       method="bsplinespiro"
       linkedpaths="#path27584-8,0,1"
       id="path-effect27590-0"
       is_visible="true"
       lpeversion="0"
       join="true"
       close="true"
       autoreverse="true" />
    <inkscape:path-effect
       effect="spiro"
       id="path-effect27586-3"
       is_visible="true"
       lpeversion="1" />
    <inkscape:path-effect
       effect="powerstroke"
       id="path-effect27588-68"
       is_visible="true"
       lpeversion="1"
       offset_points="12,6.7041532"
       not_jump="false"
       sort_points="true"
       interpolator_type="CubicBezierJohan"
       interpolator_beta="0.2"
       start_linecap_type="zerowidth"
       linejoin_type="extrp_arc"
       miter_limit="4"
       scale_width="1"
       end_linecap_type="zerowidth" />
    <inkscape:path-effect
       effect="fill_between_many"
       method="bsplinespiro"
       linkedpaths="#path27584-0,0,1"
       id="path-effect27590-73"
       is_visible="true"
       lpeversion="0"
       join="true"
       close="true"
       autoreverse="true" />
    <inkscape:path-effect
       effect="spiro"
       id="path-effect27586-92"
       is_visible="true"
       lpeversion="1" />
    <inkscape:path-effect
       effect="powerstroke"
       id="path-effect27588-61"
       is_visible="true"
       lpeversion="1"
       offset_points="12,6.7041532"
       not_jump="false"
       sort_points="true"
       interpolator_type="CubicBezierJohan"
       interpolator_beta="0.2"
       start_linecap_type="zerowidth"
       linejoin_type="extrp_arc"
       miter_limit="4"
       scale_width="1"
       end_linecap_type="zerowidth" />
    <inkscape:path-effect
       effect="fill_between_many"
       method="bsplinespiro"
       linkedpaths="#path35350,0,1"
       id="path-effect35354" />
  </defs>
  <g
     inkscape:label="Layer 1"
     inkscape:groupmode="layer"
     id="layer1">
    <path
       style="opacity:0.43871;fill:#9219db;fill-opacity:1;fill-rule:nonzero;stroke:none;stroke-width:0.0756673;stroke-opacity:0.323843;paint-order:stroke fill markers"
       d="m 63.429815,138.03007 c -1.356958,1.32569 -3.704024,2.73959 -6.772477,3.46284 -2.287838,0.53926 -4.789746,0.64758 -7.262672,0.19023 -2.293697,-0.42421 -4.428998,-1.30539 -6.276872,-2.48782 -1.93558,-1.23855 -3.425039,-2.71926 -4.524392,-4.20608 -1.344731,-1.81868 -2.11784,-3.61356 -2.680475,-4.94903 -0.181666,-0.4312 -0.341189,-0.81396 -0.496374,-1.15046 -0.549086,-1.19063 -0.964556,-2.49658 -1.179119,-3.87242 -0.255996,-1.64152 -0.233666,-3.44454 0.152437,-5.28649 0.35564,-1.69662 1.013474,-3.38721 1.992599,-4.91924 1.462419,-2.30278 3.746968,-4.42807 6.687588,-5.84688 2.664978,-1.28545 5.867534,-1.98709 9.279773,-1.86206 2.369335,0.10439 4.835056,0.59717 7.557369,1.39876 2.700682,0.79523 5.322082,1.78684 8.373071,2.90515 2.859251,1.04828 6.09944,2.19332 9.463039,3.00942 3.310678,0.80325 6.940779,1.34129 10.761709,1.14173 3.889802,-0.20154 7.550115,-1.14964 10.950509,-2.44406 3.325732,-1.26601 6.460112,-2.88592 9.364032,-4.51492 2.85171,-1.59997 5.56679,-3.2366 8.2371,-4.67115 2.63873,-1.41759 5.20195,-2.62425 7.82455,-3.4634 6.97218,-2.194939 14.93634,-1.845039 22.2245,0.91405 7.12124,2.6963 13.5493,7.61728 18.51803,13.92123 3.07241,3.91967 5.55119,8.35997 7.23692,13.07719 1.67237,4.67985 2.55718,9.6149 2.47687,14.5558 -0.0793,4.89679 -1.15191,9.82792 -3.14431,14.35244 -1.97965,4.49558 -4.8561,8.55921 -8.5141,11.76639 -5.5089,4.86405 -12.80942,7.79552 -20.27119,8.04759 -7.43403,0.25112 -15.00048,-2.1651 -20.96347,-6.75331 -0.48934,-0.37652 -0.96748,-0.76737 -1.43379,-1.17205 -0.58334,0.22352 -1.16737,0.44527 -1.75206,0.66523 -18.38379,6.91609 -37.41381,12.06461 -56.741685,15.3632 -6.969206,1.25866 -13.785573,2.23204 -20.542281,1.92564 -3.381375,-0.15321 -6.744427,-0.64522 -9.943238,-1.54705 -3.215441,-0.90652 -6.252873,-2.22353 -8.981781,-4.01845 -2.790403,-1.77275 -5.242396,-4.0269 -7.11961,-6.66234 -1.912734,-2.68509 -3.219019,-5.76828 -3.715674,-8.95388 -0.509125,-3.26471 -0.154934,-6.6321 1.065424,-9.61754 1.25922,-3.0809 3.449011,-5.73694 6.188995,-7.46082 1.02859,-0.66184 2.142961,-1.20034 3.304166,-1.70277 1.15462,-0.49957 2.454523,-1.00176 3.609144,-1.50134 1.237562,-0.53335 2.464723,-1.12798 3.60086,-1.85322 1.167326,-0.74516 2.222965,-1.61864 3.085324,-2.68358 1.121282,-1.43304 1.800744,-3.09016 2.056718,-4.73054 0.277073,-1.77559 0.05885,-3.51971 -0.493521,-5.02522 -0.616828,-1.68119 -1.644991,-3.07041 -2.810984,-4.08804 -1.36996,-1.19565 -2.933762,-1.89486 -4.372342,-2.2266 1.444247,0.33305 2.98621,1.07476 4.28775,2.31922 1.107308,1.05875 2.022499,2.47455 2.49935,4.12549 0.426937,1.47813 0.491763,3.13642 0.09741,4.7376 -0.364789,1.48115 -1.121854,2.90878 -2.224154,4.06353 -0.811205,0.88322 -1.795662,1.60056 -2.899731,2.20836 -1.077758,0.59332 -2.252355,1.07326 -3.473538,1.50477 -1.205641,0.42613 -2.498982,0.8263 -3.704623,1.25242 -1.232099,0.43449 -2.509583,0.93854 -3.737235,1.60954 -3.270105,1.82543 -5.973606,4.75676 -7.645736,8.2833 -1.6199889,3.4163 -2.2574733,7.33391 -1.8751858,11.21467 0.3728594,3.78622 1.7002458,7.49433 3.7674218,10.78308 2.028613,3.22758 4.742832,6.0263 7.870523,8.28149 3.12302,2.18819 6.578757,3.80028 10.188314,4.93383 3.587832,1.12673 7.328745,1.78113 11.052781,2.06053 7.383482,0.55419 14.730188,-0.29783 21.834516,-1.3638 19.134106,-3.05614 38.020169,-7.89009 56.333229,-14.43642 6.7977,4.99123 15.23533,7.74858 23.72958,7.68102 9.14338,-0.0727 18.21462,-3.41542 25.24137,-9.30499 4.67092,-3.9372 8.31104,-8.89949 10.84037,-14.35498 2.53845,-5.47519 3.96904,-11.4738 4.1825,-17.49493 0.21433,-6.04037 -0.75106,-12.0195 -2.64472,-17.65514 -1.90563,-5.67128 -4.75705,-11.01038 -8.32584,-15.74488 -5.69266,-7.58815 -13.32172,-13.821647 -22.17998,-17.416036 -9.05744,-3.674875 -19.32146,-4.478455 -28.74513,-1.749178 -3.51133,1.003268 -6.75319,2.437011 -9.7254,3.919638 -3.03754,1.51522 -5.86003,3.107551 -8.56066,4.519237 -2.76022,1.442549 -5.394642,2.689659 -8.013057,3.599219 -2.655162,0.92232 -5.156283,1.44718 -7.574648,1.50039 -2.380002,0.0508 -4.831291,-0.3487 -7.3999,-1.05045 -2.644844,-0.72258 -5.318446,-1.73762 -8.099563,-2.84386 -2.831869,-1.126171 -5.876627,-2.372125 -9.023127,-3.388826 -3.268679,-1.056181 -6.744275,-1.899287 -10.428892,-2.156803 -5.363571,-0.399196 -10.670934,0.505835 -15.363872,2.583464 -5.173163,2.290456 -9.448293,5.940485 -12.360805,10.286825 -1.96684,2.94523 -3.263235,6.14505 -3.975742,9.31285 -0.77452,3.44351 -0.872284,6.89291 -0.391694,10.13674 0.40267,2.7179 1.201774,5.23913 2.240649,7.49181 0.293395,0.63619 0.675156,1.33252 1.151151,2.06254 1.502629,2.30455 3.898583,4.86927 7.218695,6.8907 2.69207,1.63906 5.757379,2.75995 8.98493,3.25522 3.089206,0.47405 6.152441,0.34881 8.998902,-0.29154 3.045863,-0.68521 5.653627,-1.92222 7.774191,-3.28331 2.839492,-1.82254 4.732631,-3.81043 6.061287,-5.10847 z"
       id="path20751"
       inkscape:path-effect="#path-effect20753;#path-effect20755"
       inkscape:original-d="m 63.429815,138.03007 c 0.856399,0.29794 -32.554553,-26.84218 -32.55486,-26.8425 -3.06e-4,-3.2e-4 13.892717,-9.50981 21.846022,-10.28962 12.136949,-1.190029 24.559237,3.57931 35.553335,8.9475 10.994096,5.36818 25.701508,-7.00856 35.124978,-14.316007 9.42347,-7.307451 35.83921,11.035567 45.83382,17.000247 9.99461,5.96468 -7.28172,50.10635 -2.99848,59.50089 4.28324,9.39455 -98.8655,-10.65662 -45.83381,0.89476 0,0 -44.120105,12.67594 -57.399362,15.21075 -13.279261,2.53481 -29.841644,-39.51782 -44.120399,-40.26377 -14.278755,-0.74594 21.846329,-0.59617 13.70731,-7.158 -8.139023,-6.56181 -5.711075,-9.84193 -5.140244,-15.65812"
       inkscape:linked-fill="path20759"
       sodipodi:nodetypes="csassssssssc" />
    <path
       id="path41321"
       style="opacity:0.43871;fill:#e63be6;fill-opacity:0.5625;stroke:#000000;stroke-width:0.0649999;stroke-opacity:0.323843;paint-order:stroke fill markers"
       d="m 139.44937,54.302112 a 50.054104,45.621269 0 0 0 -50.053793,45.621505 50.054104,45.621269 0 0 0 2.870109,15.131373 c 0.276029,-0.40422 0.593096,-0.7842 0.965316,-1.13223 0.0093,-0.009 0.01912,-0.0174 0.02842,-0.0263 0.419909,-0.62525 0.915163,-1.2062 1.440739,-1.75545 0.201569,-0.16521 0.403046,-0.33037 0.604614,-0.49558 0.621346,-0.50929 1.224272,-0.75548 1.755448,-0.8077 0.717167,-0.46965 1.450799,-0.91418 2.194182,-1.34307 1.175983,-0.69074 2.397713,-1.29863 3.558953,-2.01487 1.19813,-0.7177 2.34068,-1.52309 3.52795,-2.25826 1.11053,-0.65019 2.27988,-1.1654 3.45767,-1.68051 1.30964,-0.56899 2.64212,-1.08518 3.91449,-1.73685 0.93571,-0.44561 1.86333,-0.90729 2.79208,-1.36684 0.18216,-0.542156 0.53456,-1.033273 1.00046,-1.393713 0.2176,-0.168347 0.46713,-0.290299 0.70073,-0.435632 1.28202,-0.642986 2.65446,-0.933788 4.07107,-1.072286 0.62207,-0.04793 1.24423,-0.06392 1.86603,-0.05943 1.03634,0.0075 2.07246,0.07236 3.10731,0.142627 1.61952,0.113282 3.2421,0.168439 4.86482,0.207739 1.46273,0.03263 2.92533,0.04463 4.38836,0.05323 1.3152,0.0415 2.61855,0.253109 3.91139,0.486275 0.69165,0.171207 1.3773,0.357737 2.05,0.58291 0.64234,0.117854 1.27952,0.258639 1.90221,0.454236 1.289,0.436329 2.55569,0.935145 3.81631,1.446935 1.698,0.74303 3.37672,1.54569 4.98884,2.46084 1.38968,0.79657 2.7527,1.63806 4.14962,2.42207 1.27575,0.74195 2.57201,1.49837 3.62613,2.54507 0.79014,0.88844 1.59497,1.76763 2.23863,2.77295 0.39892,0.62002 0.76288,1.25998 1.12757,1.89963 0.359,0.47008 0.72415,0.93527 1.1188,1.37666 0.93927,1.03105 1.88909,2.05196 2.82257,3.08818 0.80348,0.96072 1.50885,1.98156 2.08824,3.09439 0.50274,0.9193 0.98258,1.85425 1.5782,2.71869 0.70229,0.84825 1.51401,1.64591 1.91048,2.69545 0.36239,1.13185 0.44386,2.25432 0.20464,3.42563 -0.0868,0.58387 -0.18141,1.16691 -0.28164,1.74873 0.26388,0.3025 0.52631,0.60638 0.786,0.9126 0.0576,0.0647 0.1132,0.13039 0.1695,0.19586 A 50.054104,45.621269 0 0 0 189.50368,99.923617 50.054104,45.621269 0 0 0 139.44937,54.302112 Z M 124.51488,106.8803 c -0.009,0.005 -0.0183,0.0103 -0.0274,0.0155 0.01,-0.003 0.0174,-0.006 0.0269,-0.009 1.8e-4,-0.002 3.4e-4,-0.004 5.2e-4,-0.006 z m -14.61151,0.66094 c -0.57405,0.26277 -1.14125,0.53882 -1.68672,0.863 -0.38777,0.24468 -0.77062,0.49709 -1.15445,0.74775 0.74653,-0.37055 1.49041,-0.747 2.23345,-1.12448 0.20004,-0.1653 0.40306,-0.32674 0.60772,-0.48627 z m 24.28017,0.77566 c -0.41891,0.25004 -0.83425,0.50591 -1.24488,0.76843 0.0332,-0.0148 0.0653,-0.0314 0.0987,-0.046 0.40077,-0.21316 0.78943,-0.44851 1.14618,-0.72244 z m 22.23224,4.00338 c 0.0248,0.0785 0.0501,0.15343 0.0744,0.23357 0.0773,-0.0308 0.15278,-0.0602 0.22428,-0.0868 -0.0978,-0.0531 -0.19765,-0.10134 -0.29869,-0.14676 z m -60.824716,9.49451 v 5.1e-4 a 50.054104,45.621269 0 0 0 0.0646,0.10026 c 0.04813,-0.0318 0.09607,-0.0638 0.144177,-0.0956 -0.06966,-0.002 -0.139018,-0.001 -0.208773,-0.005 z m 62.540366,0.34778 c -0.0974,0.0862 -0.19389,0.17346 -0.29197,0.2589 0.11206,-0.019 0.22422,-0.0373 0.33641,-0.0548 -0.015,-0.068 -0.0291,-0.13619 -0.0444,-0.20412 z m 5.01468,4.65708 c 0.003,0.2173 0.0113,0.43252 0.0326,0.64182 0.0321,-0.0253 0.0646,-0.05 0.0966,-0.0755 -0.0412,-0.18926 -0.0843,-0.37815 -0.1292,-0.56637 z m -7.94783,0.45062 c -0.0435,0.007 -0.16687,0.0464 -0.33848,0.10232 0.061,0.0188 0.10085,0.0295 0.17311,0.0527 0.15488,-0.11281 0.23858,-0.16728 0.16537,-0.15503 z m -3.12539,1.15187 c -0.0549,0.0235 -0.10952,0.0476 -0.16433,0.0713 -0.001,0.004 -0.007,0.0229 -0.008,0.0258 -0.0588,0.15643 -0.11728,0.29693 -0.17622,0.43511 0.10285,-0.15453 0.22241,-0.33743 0.293,-0.44441 0.006,-0.01 0.0454,-0.0722 0.0553,-0.0878 z m -1.08624,1.79678 c -0.081,0.14489 -0.16285,0.28927 -0.24701,0.43202 0.0177,0.0104 0.0346,0.0216 0.0522,0.032 0.0553,-0.15496 0.12181,-0.30995 0.19482,-0.46406 z m -48.09474,0.73536 c -0.0285,0.0143 -0.0566,0.0305 -0.0853,0.0439 a 50.054104,45.621269 0 0 0 0.10697,0.0977 c -0.008,-0.0471 -0.0157,-0.0943 -0.0217,-0.14159 z m 59.46304,4.7718 c -0.10965,0.0582 -0.21859,0.11886 -0.32815,0.17674 -0.0931,0.0517 -0.18842,0.0977 -0.28215,0.14779 0.06,0.004 0.12824,0.0104 0.18397,0.0139 0.14638,-0.1051 0.28735,-0.22011 0.42633,-0.33848 z m -21.80849,8.68991 c -0.0907,0.39354 -0.23093,0.76812 -0.4346,1.10588 a 50.054104,45.621269 0 0 0 2.50114,-0.0853 c -0.72112,-0.18551 -1.41179,-0.49779 -2.04897,-1.00252 -0.006,-0.006 -0.0118,-0.012 -0.0176,-0.0181 z m -1.74821,0.92914 c 0.002,0.0101 0.003,0.0204 0.005,0.0305 0.0197,0.0942 0.19268,0.008 0.28888,0.0124 -0.0977,-0.0159 -0.19599,-0.0297 -0.29404,-0.0429 z" />
  </g>
</svg>
