<?xml version="1.0" encoding="UTF-8" standalone="no"?>
<!-- Created with Inkscape (http://www.inkscape.org/) -->

<svg
   width="210mm"
   height="297mm"
   viewBox="0 0 210 297"
   version="1.1"
   id="svg5"
   inkscape:version="1.2.1 (9c6d41e410, 2022-07-14)"
   sodipodi:docname="02n.svg"
   xmlns:inkscape="http://www.inkscape.org/namespaces/inkscape"
   xmlns:sodipodi="http://sodipodi.sourceforge.net/DTD/sodipodi-0.dtd"
   xmlns="http://www.w3.org/2000/svg"
   xmlns:svg="http://www.w3.org/2000/svg">
  <sodipodi:namedview
     id="namedview7"
     pagecolor="#ffffff"
     bordercolor="#000000"
     borderopacity="0.25"
     inkscape:showpageshadow="2"
     inkscape:pageopacity="0.0"
     inkscape:pagecheckerboard="0"
     inkscape:deskcolor="#d1d1d1"
     inkscape:document-units="mm"
     showgrid="false"
     inkscape:zoom="0.71624579"
     inkscape:cx="392.32342"
     inkscape:cy="450.26443"
     inkscape:window-width="958"
     inkscape:window-height="981"
     inkscape:window-x="952"
     inkscape:window-y="0"
     inkscape:window-maximized="0"
     inkscape:current-layer="layer1" />
  <defs
     id="defs2">
    <inkscape:path-effect
       effect="powerstroke"
       id="path-effect20755"
       is_visible="true"
       lpeversion="1"
       offset_points="2.6163447,6.7041532"
       not_jump="false"
       sort_points="true"
       interpolator_type="CubicBezierJohan"
       interpolator_beta="0.2"
       start_linecap_type="zerowidth"
       linejoin_type="extrp_arc"
       miter_limit="4"
       scale_width="1"
       end_linecap_type="zerowidth" />
    <inkscape:path-effect
       effect="spiro"
       id="path-effect20753"
       is_visible="true"
       lpeversion="1" />
    <inkscape:path-effect
       effect="powerstroke"
       id="path-effect20745"
       is_visible="true"
       lpeversion="1"
       offset_points="26,6.7041532"
       not_jump="false"
       sort_points="true"
       interpolator_type="CubicBezierJohan"
       interpolator_beta="0.2"
       start_linecap_type="zerowidth"
       linejoin_type="extrp_arc"
       miter_limit="4"
       scale_width="1"
       end_linecap_type="zerowidth" />
    <inkscape:path-effect
       effect="spiro"
       id="path-effect20743"
       is_visible="true"
       lpeversion="1" />
    <inkscape:path-effect
       effect="powerstroke"
       id="path-effect20735"
       is_visible="true"
       lpeversion="1"
       offset_points="11,6.7041532"
       not_jump="false"
       sort_points="true"
       interpolator_type="CubicBezierJohan"
       interpolator_beta="0.2"
       start_linecap_type="zerowidth"
       linejoin_type="extrp_arc"
       miter_limit="4"
       scale_width="1"
       end_linecap_type="zerowidth" />
    <inkscape:path-effect
       effect="spiro"
       id="path-effect20733"
       is_visible="true"
       lpeversion="1" />
    <inkscape:path-effect
       effect="powerstroke"
       id="path-effect20725"
       is_visible="true"
       lpeversion="1"
       offset_points="3,6.7041532"
       not_jump="false"
       sort_points="true"
       interpolator_type="CubicBezierJohan"
       interpolator_beta="0.2"
       start_linecap_type="zerowidth"
       linejoin_type="extrp_arc"
       miter_limit="4"
       scale_width="1"
       end_linecap_type="zerowidth" />
    <inkscape:path-effect
       effect="powerstroke"
       id="path-effect16280"
       is_visible="true"
       lpeversion="1"
       offset_points="1.124041,5.5410446"
       not_jump="true"
       sort_points="true"
       interpolator_type="CentripetalCatmullRom"
       interpolator_beta="0.75"
       start_linecap_type="round"
       linejoin_type="spiro"
       miter_limit="4"
       scale_width="1"
       end_linecap_type="round" />
    <inkscape:path-effect
       effect="simplify"
       id="path-effect16278"
       is_visible="true"
       lpeversion="1"
       steps="1"
       threshold="0.0047745358"
       smooth_angles="0"
       helper_size="0"
       simplify_individual_paths="false"
       simplify_just_coalesce="false"
       step="1" />
    <inkscape:path-effect
       effect="powerstroke"
       id="path-effect16273"
       is_visible="true"
       lpeversion="1"
       offset_points="1.4946356,5.5410446"
       not_jump="true"
       sort_points="true"
       interpolator_type="CentripetalCatmullRom"
       interpolator_beta="0.75"
       start_linecap_type="round"
       linejoin_type="spiro"
       miter_limit="4"
       scale_width="1"
       end_linecap_type="round" />
    <inkscape:path-effect
       effect="simplify"
       id="path-effect16271"
       is_visible="true"
       lpeversion="1"
       steps="1"
       threshold="0.0047745358"
       smooth_angles="0"
       helper_size="0"
       simplify_individual_paths="false"
       simplify_just_coalesce="false"
       step="1" />
    <inkscape:path-effect
       effect="powerstroke"
       id="path-effect13992"
       is_visible="true"
       lpeversion="1"
       offset_points="0.013654582,-6.7041532"
       not_jump="false"
       sort_points="true"
       interpolator_type="CubicBezierJohan"
       interpolator_beta="0.2"
       start_linecap_type="zerowidth"
       linejoin_type="extrp_arc"
       miter_limit="4"
       scale_width="1"
       end_linecap_type="zerowidth" />
    <inkscape:path-effect
       effect="spiro"
       id="path-effect13990"
       is_visible="true"
       lpeversion="1" />
    <inkscape:path-effect
       effect="powerstroke"
       id="path-effect13874"
       is_visible="true"
       lpeversion="1"
       offset_points="8,0.6738289"
       not_jump="false"
       sort_points="true"
       interpolator_type="CubicBezierJohan"
       interpolator_beta="0.2"
       start_linecap_type="zerowidth"
       linejoin_type="extrp_arc"
       miter_limit="4"
       scale_width="1"
       end_linecap_type="zerowidth" />
    <inkscape:path-effect
       effect="spiro"
       id="path-effect13872"
       is_visible="true"
       lpeversion="1" />
    <inkscape:path-effect
       effect="fill_between_many"
       method="bsplinespiro"
       linkedpaths="#path13870,0,1"
       id="path-effect13876" />
    <inkscape:path-effect
       effect="fill_between_many"
       method="bsplinespiro"
       linkedpaths="#path13988,0,1"
       id="path-effect13994" />
    <inkscape:path-effect
       effect="fill_between_many"
       method="bsplinespiro"
       linkedpaths="#path20723,0,1"
       id="path-effect20727" />
    <inkscape:path-effect
       effect="fill_between_many"
       method="bsplinespiro"
       linkedpaths="#path20731,0,1"
       id="path-effect20737" />
    <inkscape:path-effect
       effect="fill_between_many"
       method="bsplinespiro"
       linkedpaths="#path20741,0,1"
       id="path-effect20747" />
    <inkscape:path-effect
       effect="fill_between_many"
       method="bsplinespiro"
       linkedpaths="#path20751,0,1"
       id="path-effect20757" />
  </defs>
  <g
     inkscape:label="Layer 1"
     inkscape:groupmode="layer"
     id="layer1">
    <ellipse
       style="opacity:0.43871;fill:#641ee8;fill-opacity:1;stroke:#000000;stroke-width:0.0649999;stroke-opacity:0.323843;paint-order:stroke fill markers"
       id="path16355"
       cx="140.18843"
       cy="106.75747"
       rx="38.602612"
       ry="36.570892" />
    <path
       inkscape:original-d="M 0,0"
       inkscape:path-effect="#path-effect20757"
       d="m 66.123135,146.65298 c -3.011726,3.33799 -7.319689,5.47493 -11.7996,5.85314 -4.479911,0.3782 -9.085161,-1.00627 -12.613874,-3.79209 -3.528713,-2.78583 -5.944176,-6.94403 -6.616003,-11.3894 -0.671828,-4.44536 0.40697,-9.13165 2.95485,-12.83583 2.041136,-2.96746 4.978769,-5.28452 8.282645,-6.71856 3.303877,-1.43404 6.961951,-1.99765 10.556905,-1.7777 5.275465,0.32277 10.292666,2.27604 15.259386,4.08336 4.96672,1.80732 10.119797,3.51194 15.401063,3.3047 5.452687,-0.21397 10.612485,-2.45187 15.462533,-4.95279 4.85005,-2.50093 9.59487,-5.32325 14.82851,-6.86811 7.12468,-2.10305 14.92059,-1.68585 21.88723,0.89287 6.96665,2.57871 13.09309,7.2691 17.63889,13.14444 5.52969,7.14699 8.74492,16.16227 8.44687,25.19378 -0.29804,9.0315 -4.22986,17.98884 -11.03269,23.93682 -5.38943,4.71219 -12.47056,7.44707 -19.62827,7.58086 -7.1577,0.13379 -14.33609,-2.33456 -19.89785,-6.84205 -16.18292,5.32506 -32.735928,9.52507 -49.500001,12.5597 -5.969324,1.08057 -12.009689,2.01655 -18.072645,1.81405 -6.062956,-0.20251 -12.20037,-1.60472 -17.301278,-4.88819 -2.550453,-1.64173 -4.817042,-3.74395 -6.547943,-6.23476 -1.7309,-2.4908 -2.917662,-5.37392 -3.32359,-8.37981 -0.405927,-3.00588 -0.01774,-6.13095 1.220069,-8.90006 1.237807,-2.7691 3.336124,-5.16536 5.976882,-6.65751 1.936932,-1.09445 4.107404,-1.68926 6.195278,-2.45759 2.087874,-0.76832 4.174831,-1.76621 5.625618,-3.45285 0.895927,-1.04158 1.513841,-2.3201 1.773358,-3.66926 0.259517,-1.34915 0.16001,-2.76568 -0.285576,-4.0653 -0.445585,-1.29963 -1.236174,-2.47921 -2.268919,-3.3853 -1.032745,-0.9061 -2.305155,-1.53651 -3.651701,-1.80924 z"
       id="path20759"
       style="fill:#641ce9;stroke-width:0.982333;fill-opacity:0.69230771"
       class="UnoptimicedTransforms"
       transform="matrix(0.99024034,0,0,1.0465059,1.6599845,-8.9553125)" />
    <path
       style="opacity:0.43871;fill:#9219db;fill-opacity:1;fill-rule:nonzero;stroke:none;stroke-width:0.0638516;stroke-opacity:0.323843;paint-order:stroke fill markers"
       d="m 66.123135,146.65298 c -1.105062,1.22477 -3.102449,2.53976 -5.747554,3.23349 -1.971777,0.51713 -4.132114,0.6413 -6.251539,0.25659 -1.963995,-0.3565 -3.777791,-1.12227 -5.32263,-2.14357 -1.619756,-1.07082 -2.828747,-2.34149 -3.690987,-3.5931 -1.0512,-1.5259 -1.620751,-3.00465 -2.055095,-4.09034 -0.13926,-0.34809 -0.264429,-0.65552 -0.390261,-0.92238 -0.446296,-0.94646 -0.781692,-1.98262 -0.953052,-3.06927 -0.204436,-1.2964 -0.184044,-2.7323 0.13603,-4.20291 0.294861,-1.35476 0.836281,-2.69615 1.632428,-3.89637 1.173346,-1.78382 3.015999,-3.44761 5.409021,-4.56072 2.169156,-1.00845 4.787273,-1.56173 7.618966,-1.46766 1.979346,0.0837 4.058947,0.47692 6.384659,1.12668 2.312809,0.64614 4.557338,1.45014 7.210486,2.36918 2.478174,0.85868 5.304992,1.80293 8.241414,2.47403 2.891533,0.66084 6.073715,1.10333 9.427649,0.9265 3.402613,-0.17794 6.603039,-0.97796 9.570478,-2.06185 2.901592,-1.05983 5.636082,-2.41223 8.161462,-3.76769 2.48132,-1.33208 4.83263,-2.69018 7.12747,-3.8804 2.26913,-1.17688 4.45175,-2.17664 6.66614,-2.88182 5.88559,-1.83836 12.57382,-1.67042 18.74332,0.50396 6.02833,2.12494 11.53536,6.12982 15.72578,11.37576 2.49346,3.13908 4.49406,6.71603 5.84725,10.52427 1.34299,3.77956 2.04011,7.76401 1.961,11.74557 -0.0781,3.94579 -0.95062,7.91771 -2.5562,11.57402 -1.59676,3.63623 -3.90274,6.92428 -6.82311,9.54769 -2.30071,2.08141 -4.9983,3.76123 -7.92467,4.94818 -2.91776,1.18345 -6.04108,1.86784 -9.18745,1.97962 -3.14176,0.11162 -6.32409,-0.34776 -9.35813,-1.33498 -3.03141,-0.98636 -5.89387,-2.49296 -8.40008,-4.45592 -0.47113,-0.36901 -0.92951,-0.75401 -1.37433,-1.15434 -0.57504,0.19643 -1.15056,0.39142 -1.72657,0.58497 -16.02733,5.38547 -32.414251,9.64996 -49.001023,12.75963 -5.950304,1.18532 -11.712959,2.17045 -17.45419,2.08371 -2.868891,-0.0432 -5.727025,-0.37049 -8.451778,-1.04784 -2.738574,-0.68078 -5.33064,-1.71204 -7.668826,-3.15572 -2.394111,-1.41669 -4.511743,-3.25231 -6.144781,-5.42502 -1.663982,-2.21364 -2.817766,-4.7824 -3.277476,-7.44962 -0.471316,-2.7335 -0.20181,-5.57015 0.815843,-8.08038 1.050051,-2.59067 2.90683,-4.82092 5.230998,-6.23885 0.873931,-0.54768 1.82377,-0.98866 2.821605,-1.40043 1.020791,-0.42124 2.09005,-0.81132 3.110841,-1.23256 1.070975,-0.44138 2.137312,-0.94017 3.124057,-1.55773 1.014177,-0.63472 1.93133,-1.38715 2.675457,-2.31339 0.938036,-1.21829 1.495026,-2.62646 1.690373,-4.00553 0.211957,-1.49634 0.0039,-2.95401 -0.484983,-4.20923 -0.544328,-1.39747 -1.431322,-2.5396 -2.424801,-3.36482 -1.166866,-0.96924 -2.479462,-1.51629 -3.693064,-1.76209 1.211257,0.24533 2.510569,0.8367 3.610337,1.85638 0.935689,0.86756 1.711044,2.04323 2.113041,3.40579 0.361464,1.22517 0.417442,2.59507 0.08617,3.92137 -0.305409,1.22275 -0.939412,2.39527 -1.856343,3.33299 -0.688323,0.73929 -1.527817,1.33253 -2.472347,1.8282 -0.922336,0.48402 -1.930097,0.86763 -2.979377,1.20639 -1.023498,0.33057 -2.098788,0.62803 -3.197643,0.98043 -1.067398,0.3423 -2.183035,0.7463 -3.260465,1.30175 -2.865495,1.51472 -5.252614,4.02771 -6.722769,7.07618 -1.424291,2.95303 -1.976831,6.35551 -1.624292,9.71973 0.343788,3.28208 1.533225,6.48689 3.369696,9.31 1.802133,2.77054 4.201592,5.15043 6.951114,7.04451 2.747907,1.83032 5.770683,3.14625 8.91094,4.04319 3.121092,0.89146 6.360522,1.36983 9.570981,1.52961 6.358339,0.31673 12.646593,-0.55761 18.69113,-1.54438 16.313725,-2.84965 32.465138,-6.79769 48.307269,-11.8191 2.70734,2.01637 5.71667,3.6178 8.89163,4.75705 3.73898,1.34164 7.72464,2.04829 11.73667,2.02612 4.01886,-0.0222 8.01483,-0.77471 11.76703,-2.16744 3.76181,-1.3963 7.29714,-3.443 10.37742,-6.06652 3.89625,-3.33667 6.95223,-7.50749 9.08812,-12.07642 2.14549,-4.58948 3.37899,-9.61396 3.59792,-14.67552 0.21984,-5.07797 -0.55228,-10.11765 -2.11505,-14.86151 -1.57352,-4.7765 -3.95548,-9.27594 -6.97044,-13.25617 -4.99404,-6.62365 -11.77809,-11.92952 -19.55202,-14.91313 -7.9487,-3.05043 -16.84459,-3.59775 -25.03112,-1.28177 -3.04796,0.84859 -5.8704,2.04497 -8.45007,3.26924 -2.63794,1.25191 -5.08479,2.55663 -7.41333,3.70476 -2.381142,1.17377 -4.630294,2.17552 -6.849101,2.90031 -2.249144,0.7347 -4.341772,1.14164 -6.344035,1.17573 -1.978158,0.0323 -4.039697,-0.29437 -6.209323,-0.86727 -2.244256,-0.59261 -4.523597,-1.42402 -6.923737,-2.34159 -2.435545,-0.93085 -5.0847,-1.97349 -7.817345,-2.82759 -2.842976,-0.8886 -5.880716,-1.60882 -9.106285,-1.84328 -4.668589,-0.36401 -9.319617,0.34218 -13.494843,2.08775 -4.601968,1.92429 -8.47375,5.05397 -11.156265,8.87639 -1.842467,2.63615 -3.061643,5.52221 -3.73721,8.38358 -0.734547,3.11118 -0.841039,6.24113 -0.404039,9.1888 0.366131,2.46964 1.103563,4.75462 2.062142,6.78749 0.270823,0.57434 0.625172,1.20089 1.067885,1.85491 1.397549,2.06463 3.632766,4.33423 6.703573,6.0544 2.489658,1.39463 5.296809,2.27808 8.209489,2.57201 2.787895,0.28134 5.514737,0.007 8.004644,-0.7245 2.662678,-0.78279 4.883588,-2.04582 6.649198,-3.37671 2.361416,-1.77998 3.875716,-3.64781 4.950907,-4.83948 z"
       id="path20751"
       inkscape:path-effect="#path-effect20753;#path-effect20755"
       inkscape:original-d="m 66.123135,146.65298 c 0.73854,0.24601 -28.074362,-22.16391 -28.074627,-22.16418 -2.64e-4,-2.6e-4 11.980787,-7.85236 18.83955,-8.49626 10.46665,-0.98262 21.17937,2.95548 30.660449,7.38806 9.481077,4.43257 22.164443,-5.78705 30.291043,-11.8209 8.1266,-6.03385 30.90698,9.1122 39.52612,14.03731 8.61914,4.92511 -6.2796,41.37341 -2.58582,49.1306 3.69377,7.75719 -85.259533,-8.7993 -39.52612,0.73881 0,0 -38.048249,10.46668 -49.500001,12.5597 -11.451756,2.09302 -25.734807,-32.63034 -38.048505,-33.24628 -12.313698,-0.61593 18.839815,-0.49226 11.820896,-5.91044 -7.018922,-5.41817 -4.925111,-8.1266 -4.432838,-12.9291"
       inkscape:linked-fill="path20759"
       class="UnoptimicedTransforms"
       sodipodi:nodetypes="csassssssssc"
       transform="matrix(0.99024034,0,0,1.0465059,1.6599845,-8.9553125)" />
  </g>
</svg>
